<svg xmlns="http://www.w3.org/2000/svg" xmlns:xlink="http://www.w3.org/1999/xlink" preserveAspectRatio="xMidYMid" width="156" height="157" viewBox="0 0 156 157">
  <defs>
    <style>
      .cls-1 {
        fill: #fff;
        filter: url(#drop-shadow-1);
        fill-rule: evenodd;
      }
    </style>

    <filter id="drop-shadow-1" filterUnits="userSpaceOnUse">
      <feOffset dy="2" in="SourceAlpha"/>
      <feGaussianBlur stdDeviation="1" result="dropBlur"/>
      <feFlood flood-opacity="0.24"/>
      <feComposite operator="in" in2="dropBlur" result="dropShadowComp"/>
      <feComposite in="SourceGraphic" result="shadowed"/>
    </filter>
  </defs>
  <path d="M144.937,154.999 L30.187,154.999 C24.906,154.999 20.624,150.718 20.624,145.437 L20.624,140.656 L34.968,140.656 L111.468,140.656 L135.374,140.656 L135.374,64.155 L111.468,64.155 L111.468,49.812 L144.937,49.812 C150.218,49.812 154.499,54.093 154.499,59.374 L154.499,145.437 C154.499,150.718 150.218,154.999 144.937,154.999 ZM144.937,97.625 C142.296,97.625 140.155,99.765 140.155,102.405 C140.155,105.046 142.296,107.186 144.937,107.186 C147.578,107.186 149.718,105.046 149.718,102.405 C149.718,99.765 147.578,97.625 144.937,97.625 ZM97.124,135.874 L11.062,135.874 C5.780,135.874 1.499,131.593 1.499,126.312 L1.499,11.562 C1.499,6.281 5.780,1.999 11.062,1.999 L97.124,1.999 C102.406,1.999 106.687,6.281 106.687,11.562 L106.687,126.312 C106.687,131.593 102.406,135.874 97.124,135.874 ZM54.093,131.093 C56.734,131.093 58.874,128.952 58.874,126.312 C58.874,123.671 56.734,121.530 54.093,121.530 C51.452,121.530 49.312,123.671 49.312,126.312 C49.312,128.952 51.452,131.093 54.093,131.093 ZM92.343,16.343 L15.843,16.343 L15.843,116.749 L92.343,116.749 L92.343,16.343 Z" class="cls-1"/>
</svg>
