<svg xmlns="http://www.w3.org/2000/svg" xmlns:xlink="http://www.w3.org/1999/xlink" preserveAspectRatio="xMidYMid" width="275" height="231" viewBox="0 0 275 231">
  <defs>
    <style>
      .cls-1 {
        fill: #fff;
        filter: url(#drop-shadow-1);
        fill-rule: evenodd;
      }
    </style>

    <filter id="drop-shadow-1" filterUnits="userSpaceOnUse">
      <feOffset dy="2" in="SourceAlpha"/>
      <feGaussianBlur stdDeviation="1" result="dropBlur"/>
      <feFlood flood-opacity="0.24"/>
      <feComposite operator="in" in2="dropBlur" result="dropShadowComp"/>
      <feComposite in="SourceGraphic" result="shadowed"/>
    </filter>
  </defs>
  <path d="M246.299,228.999 L28.698,228.999 C18.683,228.999 1.498,220.868 1.498,210.839 C1.498,200.809 9.617,192.678 19.631,192.678 L255.365,192.678 C265.380,192.678 273.499,200.809 273.499,210.839 C273.499,220.868 256.313,228.999 246.299,228.999 ZM164.699,210.839 L110.298,210.839 C105.291,210.839 101.232,212.872 101.232,215.378 C101.232,217.886 105.291,219.919 110.298,219.919 L164.699,219.919 C169.706,219.919 173.766,217.886 173.766,215.378 C173.766,212.872 169.706,210.839 164.699,210.839 ZM102.151,95.686 L118.882,112.517 L172.813,58.265 C176.337,54.718 182.053,54.718 185.578,58.265 L198.344,71.106 C201.868,74.652 201.868,80.401 198.344,83.946 L128.135,154.572 C125.116,157.609 120.495,158.037 117.014,155.872 C114.065,156.578 110.833,155.785 108.533,153.471 L76.620,121.368 C73.095,117.822 73.095,112.073 76.620,108.527 L89.385,95.686 C92.910,92.140 98.625,92.140 102.151,95.686 ZM228.165,29.239 L46.831,29.239 L46.831,174.519 L19.631,174.519 L19.631,156.359 L21.212,156.359 C20.207,153.515 19.631,150.468 19.631,147.279 L19.631,29.239 C19.631,14.194 31.809,1.998 46.831,1.998 L228.165,1.998 C243.187,1.998 255.365,14.194 255.365,29.239 L255.365,147.279 C255.365,150.468 254.790,153.515 253.784,156.359 L255.365,156.359 L255.365,174.519 L228.165,174.519 L228.165,29.239 Z" class="cls-1"/>
</svg>
